<?xml version="1.0" standalone="no"?>
<!DOCTYPE svg PUBLIC "-//W3C//DTD SVG 20010904//EN"
 "http://www.w3.org/TR/2001/REC-SVG-20010904/DTD/svg10.dtd">
<svg version="1.0" xmlns="http://www.w3.org/2000/svg"
 width="512.000000pt" height="512.000000pt" viewBox="0 0 512.000000 512.000000"
 preserveAspectRatio="xMidYMid meet">

<g transform="translate(0.000000,512.000000) scale(0.100000,-0.100000)"
fill="#000000" stroke="none">
<path d="M649 4045 c-14 -8 -31 -27 -37 -42 -9 -23 -42 -348 -42 -414 0 -18
-10 -19 -176 -19 -101 0 -183 -4 -195 -10 -24 -13 -49 -61 -49 -94 0 -14 13
-40 29 -58 l29 -33 172 -3 171 -3 -7 -82 c-3 -45 -9 -109 -13 -142 l-6 -60
-88 -5 c-83 -5 -90 -7 -114 -34 -20 -24 -24 -37 -20 -69 9 -68 57 -97 161 -97
l49 0 -6 -47 c-3 -27 -9 -89 -13 -140 l-6 -92 -215 -3 -215 -3 -29 -33 c-16
-18 -29 -44 -29 -58 0 -33 25 -81 49 -94 12 -6 102 -10 221 -10 l202 0 -6 -57
c-4 -32 -20 -224 -37 -427 -33 -403 -33 -413 22 -441 22 -12 77 -15 256 -16
l228 0 34 -72 c47 -100 158 -210 261 -261 177 -86 363 -86 540 0 103 51 214
161 261 261 l34 72 695 0 695 0 34 -72 c47 -100 158 -210 261 -261 177 -86
363 -86 540 0 103 51 214 161 261 261 l34 72 228 0 c250 1 274 6 296 58 9 21
11 187 9 628 l-3 600 -27 50 c-51 96 -136 152 -245 163 l-64 7 -130 300 c-206
480 -199 464 -230 481 -23 11 -97 14 -414 14 l-385 0 0 110 c0 121 -10 154
-51 176 -42 21 -2881 20 -2920 -1z m2771 -1060 l0 -875 -759 0 -758 0 -66 44
c-208 139 -466 139 -674 0 l-66 -44 -225 0 -225 0 7 97 c4 54 9 119 13 146 l6
47 78 0 c95 0 127 20 136 86 5 36 1 46 -25 75 -28 31 -35 34 -102 37 l-72 4 6
92 c4 50 10 112 13 139 l6 47 381 0 c230 0 396 4 418 10 78 22 103 106 49 161
l-29 29 -403 0 -402 0 7 88 c4 48 9 113 12 144 l6 57 165 3 165 3 29 33 c40
44 40 93 0 133 l-29 29 -158 0 -157 0 7 78 c3 42 9 107 12 145 l7 67 1313 0
1314 0 0 -875z m450 215 c0 -381 3 -405 47 -426 10 -5 228 -11 485 -14 l467
-5 23 -23 c23 -22 23 -26 26 -322 l3 -300 -249 0 -249 0 -66 44 c-207 139
-466 139 -673 1 l-64 -43 0 724 0 724 125 0 125 0 0 -360z m560 69 c69 -160
127 -295 128 -300 2 -5 -106 -9 -242 -9 l-246 0 0 300 0 300 118 0 117 0 125
-291z m-2766 -1247 c91 -42 149 -100 194 -190 35 -72 37 -81 37 -172 0 -91 -2
-100 -37 -172 -45 -91 -103 -147 -196 -191 -61 -29 -76 -32 -162 -32 -86 0
-101 3 -160 31 -95 46 -153 101 -197 192 -36 72 -38 81 -38 171 0 87 3 102 32
163 40 85 97 147 172 186 78 42 122 52 213 48 61 -3 92 -11 142 -34z m2520 0
c91 -42 149 -100 194 -190 35 -72 37 -81 37 -172 0 -91 -2 -100 -37 -172 -45
-91 -103 -147 -196 -191 -61 -29 -76 -32 -162 -32 -86 0 -101 3 -160 31 -95
46 -153 101 -197 192 -36 72 -38 81 -38 172 0 91 2 100 38 172 53 109 151 189
264 218 71 18 186 5 257 -28z m-3239 -129 c-16 -42 -45 -169 -45 -200 l0 -33
-146 0 -146 0 6 78 c4 42 9 98 12 125 l6 47 160 0 c148 0 160 -1 153 -17z
m2520 0 c-16 -42 -45 -169 -45 -200 l0 -33 -660 0 -660 0 0 33 c0 31 -29 158
-45 200 -7 16 31 17 705 17 674 0 712 -1 705 -17z m1455 -108 l0 -125 -150 0
-150 0 0 33 c0 31 -29 158 -45 200 -7 16 5 17 169 17 l176 0 0 -125z"/>
<path d="M1437 3559 c-52 -30 -58 -116 -11 -160 25 -24 27 -24 251 -24 l225 0
29 33 c40 44 40 93 0 133 l-29 29 -224 0 c-133 0 -230 -5 -241 -11z"/>
<path d="M1873 3056 c-23 -20 -28 -32 -28 -69 0 -81 47 -107 195 -106 112 0
150 14 173 61 16 32 17 43 7 73 -19 59 -38 65 -187 65 -125 0 -133 -1 -160
-24z"/>
<path d="M1451 1746 c-87 -48 -50 -186 49 -186 51 0 100 49 100 99 0 75 -83
124 -149 87z"/>
<path d="M3971 1746 c-87 -48 -50 -186 49 -186 51 0 100 49 100 99 0 75 -83
124 -149 87z"/>
</g>
</svg>
